# xmcd CD database file
#
# Track frame offsets:
#	187
#	29635
#	62232
#	78145
#	96015
#	124022
#	143492
#
# Disc length: 2378 seconds
#
# Revision: 0
# Processed by: cddbd v1.5.2PL0 Copyright (c) Steve Scherf et al.
# Submitted via: CDex 1.70beta3
#
DISCID=54094807
DTITLE=Johnny Hammond Smith and Willis Jackson - Johnny Hammond Cooks With Gator Tail
DYEAR=1962
DGENRE=Jazz
TTITLE0=Good 'Nuff
TTITLE1=Nobody Knows The Trouble I've Seen
TTITLE2=Sonja's Dreamland
TTITLE3=Besame Mucho
TTITLE4=Neckbones
TTITLE5=Delicious
TTITLE6=Y'all
EXTD=YEAR: 1962
EXTT0=
EXTT1=
EXTT2=
EXTT3=
EXTT4=
EXTT5=
EXTT6=
PLAYORDER=
